<svg xmlns="http://www.w3.org/2000/svg" xmlns:xlink="http://www.w3.org/1999/xlink" width="463" zoomAndPan="magnify" viewBox="0 0 347.25 120.750001" height="161" preserveAspectRatio="xMidYMid meet" version="1.0"><defs><g/></defs><g fill="#000000" fill-opacity="1"><g transform="translate(27.741984, 76.171301)"><g><path d="M 32.46875 -37.703125 C 33.019531 -37.703125 33.628906 -37.679688 34.296875 -37.640625 C 34.972656 -37.609375 35.628906 -37.507812 36.265625 -37.34375 C 36.898438 -37.1875 37.460938 -36.929688 37.953125 -36.578125 C 38.441406 -36.234375 38.773438 -35.738281 38.953125 -35.09375 C 39.023438 -34.90625 39.078125 -34.546875 39.109375 -34.015625 C 39.148438 -33.492188 39.191406 -32.816406 39.234375 -31.984375 C 39.234375 -31.148438 39.238281 -30.429688 39.25 -29.828125 C 39.269531 -29.234375 39.265625 -28.570312 39.234375 -27.84375 C 39.015625 -21.851562 38.847656 -16.585938 38.734375 -12.046875 C 38.703125 -11.242188 38.675781 -10.476562 38.65625 -9.75 C 38.632812 -9.019531 38.601562 -8.265625 38.5625 -7.484375 C 38.53125 -6.703125 38.503906 -5.882812 38.484375 -5.03125 C 38.472656 -4.1875 38.46875 -3.21875 38.46875 -2.125 C 38.46875 -1.070312 38.457031 -0.25 38.4375 0.34375 C 38.414062 0.945312 38.390625 1.359375 38.359375 1.578125 C 38.285156 2.046875 38.117188 2.335938 37.859375 2.453125 C 37.785156 2.453125 37.601562 2.566406 37.3125 2.796875 C 37.03125 3.035156 36.832031 3.191406 36.71875 3.265625 C 36.539062 3.335938 36.242188 3.492188 35.828125 3.734375 C 35.410156 3.972656 35.128906 4.144531 34.984375 4.25 C 34.867188 4.394531 34.703125 4.472656 34.484375 4.484375 C 34.265625 4.503906 34.140625 4.460938 34.109375 4.359375 C 34.066406 4.316406 33.847656 4.351562 33.453125 4.46875 C 33.128906 4.570312 32.835938 4.660156 32.578125 4.734375 C 32.328125 4.804688 32.09375 4.84375 31.875 4.84375 C 31.550781 4.84375 31.242188 4.734375 30.953125 4.515625 C 30.765625 4.410156 30.523438 4.257812 30.234375 4.0625 C 29.941406 3.863281 29.648438 3.65625 29.359375 3.4375 C 29.078125 3.21875 28.816406 3 28.578125 2.78125 C 28.335938 2.5625 28.164062 2.359375 28.0625 2.171875 C 27.726562 1.597656 27.421875 0.75 27.140625 -0.375 C 26.878906 -1.144531 26.785156 -1.566406 26.859375 -1.640625 C 26.898438 -1.640625 26.9375 -1.617188 26.96875 -1.578125 C 27.113281 -1.546875 27.203125 -1.546875 27.234375 -1.578125 C 27.304688 -1.722656 27.359375 -2.273438 27.390625 -3.234375 C 27.429688 -4.203125 27.488281 -5.613281 27.5625 -7.46875 C 27.601562 -8.738281 27.628906 -9.789062 27.640625 -10.625 C 27.660156 -11.457031 27.671875 -12.132812 27.671875 -12.65625 C 27.671875 -13.1875 27.660156 -13.5625 27.640625 -13.78125 C 27.628906 -14 27.601562 -14.128906 27.5625 -14.171875 C 27.5625 -14.203125 27.328125 -14.273438 26.859375 -14.390625 C 26.679688 -14.421875 26.375 -14.425781 25.9375 -14.40625 C 25.5 -14.394531 24.9375 -14.351562 24.25 -14.28125 C 23.914062 -14.238281 23.25 -14.125 22.25 -13.9375 C 21.257812 -13.757812 20.21875 -13.5625 19.125 -13.34375 C 18.03125 -13.125 17.03125 -12.90625 16.125 -12.6875 C 15.21875 -12.476562 14.691406 -12.335938 14.546875 -12.265625 C 14.515625 -12.222656 14.46875 -11.875 14.40625 -11.21875 C 14.351562 -10.570312 14.3125 -9.679688 14.28125 -8.546875 C 14.207031 -6.921875 14.140625 -5.367188 14.078125 -3.890625 C 14.023438 -2.421875 13.945312 -1.378906 13.84375 -0.765625 C 13.769531 -0.328125 13.648438 0.195312 13.484375 0.8125 C 13.316406 1.4375 13.085938 1.925781 12.796875 2.28125 C 12.296875 3.007812 11.734375 3.523438 11.109375 3.828125 C 10.492188 4.140625 9.878906 4.296875 9.265625 4.296875 C 8.578125 4.296875 7.941406 4.046875 7.359375 3.546875 C 6.847656 3.140625 6.5 2.921875 6.3125 2.890625 C 5.988281 2.742188 5.671875 2.488281 5.359375 2.125 C 5.054688 1.757812 4.785156 1.367188 4.546875 0.953125 C 4.304688 0.535156 4.113281 0.101562 3.96875 -0.34375 C 3.832031 -0.800781 3.742188 -1.210938 3.703125 -1.578125 C 3.671875 -1.867188 3.644531 -2.359375 3.625 -3.046875 C 3.601562 -3.742188 3.613281 -4.632812 3.65625 -5.71875 C 3.6875 -7.03125 3.71875 -8.421875 3.75 -9.890625 C 3.789062 -11.359375 3.847656 -12.640625 3.921875 -13.734375 C 4.242188 -18.597656 4.351562 -22.570312 4.25 -25.65625 C 4.175781 -27.625 4.09375 -29.25 4 -30.53125 C 3.914062 -31.820312 3.800781 -32.847656 3.65625 -33.609375 C 3.582031 -34.015625 3.488281 -34.351562 3.375 -34.625 C 3.269531 -34.894531 3.125 -35.101562 2.9375 -35.25 C 2.789062 -35.394531 2.753906 -35.488281 2.828125 -35.53125 C 2.898438 -35.5625 2.953125 -35.578125 2.984375 -35.578125 C 3.023438 -35.578125 3.097656 -35.582031 3.203125 -35.59375 C 3.316406 -35.613281 3.460938 -35.671875 3.640625 -35.765625 C 3.828125 -35.859375 4.101562 -36.015625 4.46875 -36.234375 C 4.9375 -36.484375 5.253906 -36.632812 5.421875 -36.6875 C 5.585938 -36.75 5.941406 -36.796875 6.484375 -36.828125 C 6.992188 -36.828125 7.53125 -36.828125 8.09375 -36.828125 C 8.65625 -36.828125 9.226562 -36.8125 9.8125 -36.78125 C 11.226562 -36.664062 12.363281 -36.378906 13.21875 -35.921875 C 14.070312 -35.472656 14.585938 -34.488281 14.765625 -32.96875 C 14.835938 -32.414062 14.875 -31.6875 14.875 -30.78125 C 14.875 -29.875 14.835938 -28.691406 14.765625 -27.234375 C 14.691406 -24.367188 14.640625 -22.703125 14.609375 -22.234375 C 14.535156 -21.722656 14.535156 -21.46875 14.609375 -21.46875 C 14.785156 -21.46875 15.15625 -21.507812 15.71875 -21.59375 C 16.28125 -21.6875 17.050781 -21.828125 18.03125 -22.015625 C 19.15625 -22.234375 20.117188 -22.429688 20.921875 -22.609375 C 21.722656 -22.796875 22.441406 -22.941406 23.078125 -23.046875 C 23.710938 -23.148438 24.300781 -23.238281 24.84375 -23.3125 C 25.382812 -23.382812 25.945312 -23.421875 26.53125 -23.421875 C 27.257812 -23.421875 27.6875 -23.429688 27.8125 -23.453125 C 27.9375 -23.472656 28 -23.535156 28 -23.640625 C 28.070312 -24.003906 28.054688 -25.382812 27.953125 -27.78125 C 27.878906 -29.019531 27.8125 -29.9375 27.75 -30.53125 C 27.695312 -31.132812 27.632812 -31.597656 27.5625 -31.921875 C 27.414062 -32.617188 27.164062 -33.238281 26.8125 -33.78125 C 26.550781 -34.144531 26.421875 -34.378906 26.421875 -34.484375 C 26.421875 -34.992188 26.726562 -35.484375 27.34375 -35.953125 C 28.1875 -36.578125 28.96875 -37.023438 29.6875 -37.296875 C 30.414062 -37.566406 31.34375 -37.703125 32.46875 -37.703125 Z M 32.46875 -37.703125 "/></g></g></g><g fill="#000000" fill-opacity="1"><g transform="translate(70.290294, 76.171301)"><g><path d="M 16.9375 -20.65625 C 16.320312 -20.65625 15.707031 -20.472656 15.09375 -20.109375 C 14.726562 -19.960938 14.289062 -19.632812 13.78125 -19.125 C 13.269531 -18.613281 12.835938 -18.125 12.484375 -17.65625 C 12.078125 -17.175781 11.753906 -16.65625 11.515625 -16.09375 C 11.285156 -15.53125 11.078125 -14.941406 10.890625 -14.328125 C 10.390625 -12.328125 10.351562 -10.398438 10.78125 -8.546875 C 11.113281 -7.242188 11.609375 -6.210938 12.265625 -5.453125 C 12.734375 -4.972656 13.375 -4.609375 14.1875 -4.359375 C 15.007812 -4.109375 15.75 -3.984375 16.40625 -3.984375 C 17.78125 -3.984375 18.8125 -4.351562 19.5 -5.09375 C 20.195312 -5.84375 20.707031 -6.851562 21.03125 -8.125 C 21.207031 -8.84375 21.332031 -9.582031 21.40625 -10.34375 C 21.476562 -11.113281 21.5 -11.929688 21.46875 -12.796875 C 21.425781 -14.066406 21.316406 -15.066406 21.140625 -15.796875 C 21.023438 -16.273438 20.847656 -16.796875 20.609375 -17.359375 C 20.378906 -17.921875 20.09375 -18.445312 19.75 -18.9375 C 19.40625 -19.425781 18.992188 -19.832031 18.515625 -20.15625 C 18.046875 -20.488281 17.519531 -20.65625 16.9375 -20.65625 Z M 18.09375 -27.40625 C 20.15625 -27.40625 22.078125 -26.882812 23.859375 -25.84375 C 25.640625 -24.8125 27.1875 -23.535156 28.5 -22.015625 C 29.550781 -20.597656 30.257812 -19.160156 30.625 -17.703125 C 30.988281 -16.253906 31.1875 -14.65625 31.21875 -12.90625 C 31.257812 -11.707031 31.222656 -10.582031 31.109375 -9.53125 C 31.003906 -8.476562 30.804688 -7.535156 30.515625 -6.703125 C 29.347656 -3.140625 27.472656 -0.378906 24.890625 1.578125 C 22.316406 3.535156 19.160156 4.515625 15.421875 4.515625 C 15.128906 4.515625 14.703125 4.492188 14.140625 4.453125 C 13.578125 4.421875 12.976562 4.378906 12.34375 4.328125 C 11.707031 4.273438 11.113281 4.203125 10.5625 4.109375 C 10.019531 4.023438 9.625 3.925781 9.375 3.8125 C 8.5 3.375 7.679688 2.800781 6.921875 2.09375 C 6.160156 1.382812 5.414062 0.488281 4.6875 -0.59375 C 3.519531 -2.269531 2.707031 -4.003906 2.25 -5.796875 C 1.800781 -7.597656 1.613281 -9.679688 1.6875 -12.046875 C 1.726562 -13.316406 1.863281 -14.515625 2.09375 -15.640625 C 2.332031 -16.765625 2.707031 -17.800781 3.21875 -18.75 C 3.863281 -20.300781 4.703125 -21.625 5.734375 -22.71875 C 6.773438 -23.8125 7.941406 -24.703125 9.234375 -25.390625 C 10.523438 -26.078125 11.914062 -26.582031 13.40625 -26.90625 C 14.894531 -27.238281 16.457031 -27.40625 18.09375 -27.40625 Z M 18.09375 -27.40625 "/></g></g></g><g fill="#000000" fill-opacity="1"><g transform="translate(103.195777, 76.171301)"><g><path d="M 15.90625 -27.625 C 16.164062 -27.625 16.613281 -27.625 17.25 -27.625 C 17.882812 -27.625 18.554688 -27.601562 19.265625 -27.5625 C 19.972656 -27.53125 20.625 -27.476562 21.21875 -27.40625 C 21.820312 -27.332031 22.210938 -27.222656 22.390625 -27.078125 C 22.578125 -26.972656 22.757812 -26.773438 22.9375 -26.484375 C 23.113281 -26.191406 23.347656 -25.828125 23.640625 -25.390625 C 23.898438 -25.023438 24.101562 -24.710938 24.25 -24.453125 C 24.394531 -24.203125 24.507812 -23.976562 24.59375 -23.78125 C 24.6875 -23.582031 24.75 -23.390625 24.78125 -23.203125 C 24.820312 -23.023438 24.84375 -22.8125 24.84375 -22.5625 C 24.84375 -20.957031 24.117188 -19.957031 22.671875 -19.5625 C 22.554688 -19.519531 22.351562 -19.476562 22.0625 -19.4375 C 21.769531 -19.40625 21.453125 -19.367188 21.109375 -19.328125 C 20.765625 -19.296875 20.4375 -19.257812 20.125 -19.21875 C 19.820312 -19.1875 19.613281 -19.171875 19.5 -19.171875 C 19.46875 -19.171875 19.453125 -19.226562 19.453125 -19.34375 C 19.453125 -19.445312 19.316406 -19.523438 19.046875 -19.578125 C 18.773438 -19.640625 18.617188 -19.722656 18.578125 -19.828125 C 18.546875 -20.085938 18.253906 -20.21875 17.703125 -20.21875 C 17.453125 -20.21875 17.304688 -20.253906 17.265625 -20.328125 C 17.234375 -20.398438 17.125 -20.414062 16.9375 -20.375 C 16.832031 -20.34375 16.617188 -20.378906 16.296875 -20.484375 C 16.003906 -20.554688 15.726562 -20.609375 15.46875 -20.640625 C 15.21875 -20.679688 14.960938 -20.703125 14.703125 -20.703125 C 13.835938 -20.703125 13.066406 -20.5 12.390625 -20.09375 C 11.722656 -19.695312 11.1875 -19.082031 10.78125 -18.25 C 10.53125 -17.664062 10.425781 -17.335938 10.46875 -17.265625 C 10.570312 -17.160156 10.90625 -16.988281 11.46875 -16.75 C 12.03125 -16.519531 12.53125 -16.332031 12.96875 -16.1875 C 13.289062 -16.113281 13.632812 -16.019531 14 -15.90625 C 14.363281 -15.800781 14.742188 -15.710938 15.140625 -15.640625 C 18.234375 -14.984375 20.597656 -13.984375 22.234375 -12.640625 C 23.679688 -11.441406 24.648438 -10.242188 25.140625 -9.046875 C 25.628906 -7.847656 25.726562 -6.429688 25.4375 -4.796875 C 25.039062 -2.210938 23.644531 -0.0507812 21.25 1.6875 C 20.59375 2.15625 19.789062 2.570312 18.84375 2.9375 C 17.90625 3.300781 16.910156 3.617188 15.859375 3.890625 C 14.804688 4.160156 13.757812 4.367188 12.71875 4.515625 C 11.6875 4.660156 10.769531 4.734375 9.96875 4.734375 C 7.75 4.734375 6.039062 4.351562 4.84375 3.59375 C 3.0625 2.539062 2.007812 1.648438 1.6875 0.921875 C 1.320312 0.128906 1.269531 -0.46875 1.53125 -0.875 C 1.632812 -1.050781 1.6875 -1.285156 1.6875 -1.578125 C 1.726562 -1.765625 1.753906 -1.945312 1.765625 -2.125 C 1.785156 -2.300781 1.816406 -2.484375 1.859375 -2.671875 C 1.960938 -2.960938 2.035156 -3.34375 2.078125 -3.8125 C 2.140625 -4.175781 2.207031 -4.394531 2.28125 -4.46875 C 2.351562 -4.570312 2.390625 -4.804688 2.390625 -5.171875 C 2.390625 -5.390625 2.398438 -5.523438 2.421875 -5.578125 C 2.441406 -5.640625 2.46875 -5.6875 2.5 -5.71875 C 2.539062 -5.757812 2.566406 -5.820312 2.578125 -5.90625 C 2.597656 -6 2.609375 -6.171875 2.609375 -6.421875 L 2.671875 -6.96875 L 2.71875 -6.921875 C 2.863281 -6.585938 2.957031 -6.515625 3 -6.703125 C 3.03125 -6.734375 3.046875 -6.785156 3.046875 -6.859375 C 3.046875 -6.972656 3.066406 -6.992188 3.109375 -6.921875 C 3.140625 -6.878906 3.144531 -6.835938 3.125 -6.796875 C 3.113281 -6.765625 3.125 -6.710938 3.15625 -6.640625 C 3.707031 -5.191406 4.460938 -4.15625 5.421875 -3.53125 C 6.378906 -2.914062 7.625 -2.609375 9.15625 -2.609375 C 9.882812 -2.609375 10.628906 -2.679688 11.390625 -2.828125 C 12.148438 -2.972656 12.910156 -3.191406 13.671875 -3.484375 C 15.128906 -4.023438 15.859375 -5.039062 15.859375 -6.53125 C 15.859375 -7.007812 15.785156 -7.320312 15.640625 -7.46875 C 15.160156 -7.9375 13.269531 -8.441406 9.96875 -8.984375 C 8.84375 -9.242188 8.242188 -9.410156 8.171875 -9.484375 C 8.097656 -9.554688 7.9375 -9.628906 7.6875 -9.703125 C 6.914062 -9.773438 6.085938 -10.164062 5.203125 -10.875 C 4.316406 -11.582031 3.5625 -12.390625 2.9375 -13.296875 C 2.320312 -14.234375 1.988281 -15.375 1.9375 -16.71875 C 1.882812 -18.070312 2.109375 -19.457031 2.609375 -20.875 C 2.941406 -21.882812 3.585938 -22.832031 4.546875 -23.71875 C 5.515625 -24.613281 6.46875 -25.296875 7.40625 -25.765625 C 8.644531 -26.421875 10.023438 -26.894531 11.546875 -27.1875 C 13.078125 -27.476562 14.53125 -27.625 15.90625 -27.625 Z M 15.90625 -27.625 "/></g></g></g><g fill="#000000" fill-opacity="1"><g transform="translate(130.489895, 76.171301)"><g><path d="M 10.40625 -36.671875 C 10.582031 -36.742188 11.144531 -36.78125 12.09375 -36.78125 C 12.5625 -36.78125 13.097656 -36.78125 13.703125 -36.78125 C 14.304688 -36.78125 14.96875 -36.742188 15.6875 -36.671875 C 16.632812 -36.628906 17.21875 -36.484375 17.4375 -36.234375 C 17.539062 -36.117188 17.847656 -35.972656 18.359375 -35.796875 C 18.753906 -35.679688 19.082031 -35.445312 19.34375 -35.09375 C 19.882812 -34.144531 19.972656 -33.160156 19.609375 -32.140625 C 19.578125 -31.992188 19.550781 -31.859375 19.53125 -31.734375 C 19.507812 -31.609375 19.484375 -31.457031 19.453125 -31.28125 C 19.410156 -31.164062 19.351562 -30.914062 19.28125 -30.53125 C 19.207031 -30.15625 19.125 -29.757812 19.03125 -29.34375 C 18.945312 -28.925781 18.867188 -28.535156 18.796875 -28.171875 C 18.722656 -27.804688 18.6875 -27.585938 18.6875 -27.515625 C 18.726562 -27.472656 19.65625 -27.453125 21.46875 -27.453125 C 22.375 -27.453125 23.109375 -27.460938 23.671875 -27.484375 C 24.234375 -27.503906 24.625 -27.53125 24.84375 -27.5625 C 26.007812 -27.78125 26.753906 -27.566406 27.078125 -26.921875 C 27.472656 -26.117188 27.757812 -25.460938 27.9375 -24.953125 C 28.125 -24.441406 28.21875 -24.0625 28.21875 -23.8125 C 28.21875 -23.550781 28.273438 -23.28125 28.390625 -23 C 28.492188 -22.707031 28.5 -22.453125 28.40625 -22.234375 C 28.320312 -22.015625 28.078125 -21.703125 27.671875 -21.296875 C 27.242188 -20.867188 26.8125 -20.582031 26.375 -20.4375 C 25.5 -20.070312 24.9375 -19.890625 24.6875 -19.890625 C 24.5 -19.890625 24.421875 -19.851562 24.453125 -19.78125 C 24.492188 -19.707031 24.425781 -19.648438 24.25 -19.609375 C 24.175781 -19.578125 24.09375 -19.5625 24 -19.5625 C 23.90625 -19.5625 23.785156 -19.539062 23.640625 -19.5 C 23.460938 -19.5 23.097656 -19.460938 22.546875 -19.390625 C 22.003906 -19.316406 21.441406 -19.222656 20.859375 -19.109375 C 20.285156 -19.003906 19.753906 -18.890625 19.265625 -18.765625 C 18.773438 -18.640625 18.472656 -18.503906 18.359375 -18.359375 C 18.179688 -18.140625 18.046875 -17.566406 17.953125 -16.640625 C 17.859375 -15.710938 17.757812 -14.429688 17.65625 -12.796875 C 17.4375 -9.535156 17.378906 -7.015625 17.484375 -5.234375 L 17.59375 -3.703125 L 17.984375 -3.65625 C 18.015625 -3.65625 18.140625 -3.632812 18.359375 -3.59375 C 18.578125 -3.5625 18.742188 -3.523438 18.859375 -3.484375 C 19.035156 -3.453125 19.285156 -3.460938 19.609375 -3.515625 C 19.941406 -3.566406 20.328125 -3.628906 20.765625 -3.703125 C 21.191406 -3.816406 21.566406 -3.914062 21.890625 -4 C 22.222656 -4.09375 22.484375 -4.210938 22.671875 -4.359375 C 23.679688 -4.941406 24.28125 -5.5625 24.46875 -6.21875 C 24.570312 -6.46875 24.695312 -6.519531 24.84375 -6.375 C 24.914062 -6.269531 25.039062 -6.269531 25.21875 -6.375 L 25.4375 -6.53125 L 25.28125 -5.5 C 25.207031 -5.207031 25.175781 -4.953125 25.1875 -4.734375 C 25.207031 -4.515625 25.203125 -4.367188 25.171875 -4.296875 C 25.171875 -4.191406 25.207031 -4.101562 25.28125 -4.03125 C 25.3125 -4.03125 25.363281 -4.03125 25.4375 -4.03125 C 25.4375 -4 25.410156 -3.898438 25.359375 -3.734375 C 25.304688 -3.566406 25.242188 -3.382812 25.171875 -3.1875 C 25.097656 -2.988281 25.023438 -2.796875 24.953125 -2.609375 C 24.878906 -2.429688 24.84375 -2.304688 24.84375 -2.234375 C 24.375 -1.253906 24.140625 -0.671875 24.140625 -0.484375 C 24.140625 -0.378906 24.03125 -0.179688 23.8125 0.109375 C 23.519531 0.398438 23.410156 0.597656 23.484375 0.703125 C 23.515625 0.890625 23.171875 1.398438 22.453125 2.234375 C 21.648438 2.992188 20.664062 3.628906 19.5 4.140625 C 18.34375 4.648438 17.238281 4.90625 16.1875 4.90625 C 15.820312 4.90625 15.507812 4.832031 15.25 4.6875 C 15.03125 4.5 14.6875 4.390625 14.21875 4.359375 C 13.632812 4.242188 13.078125 4.023438 12.546875 3.703125 C 12.023438 3.378906 11.546875 2.976562 11.109375 2.5 C 10.679688 2.03125 10.300781 1.519531 9.96875 0.96875 C 9.644531 0.425781 9.410156 -0.113281 9.265625 -0.65625 C 8.898438 -1.738281 8.660156 -3.863281 8.546875 -7.03125 C 8.515625 -7.644531 8.503906 -8.46875 8.515625 -9.5 C 8.535156 -10.539062 8.566406 -11.769531 8.609375 -13.1875 L 8.71875 -17.21875 L 8.4375 -17.15625 C 8.332031 -17.125 7.679688 -17.109375 6.484375 -17.109375 C 5.609375 -17.109375 4.960938 -17.148438 4.546875 -17.234375 C 4.128906 -17.328125 3.6875 -17.519531 3.21875 -17.8125 C 2.957031 -18 2.671875 -18.304688 2.359375 -18.734375 C 2.054688 -19.171875 1.832031 -19.59375 1.6875 -20 C 1.320312 -20.90625 1.101562 -22.03125 1.03125 -23.375 C 0.957031 -23.988281 1.03125 -24.476562 1.25 -24.84375 C 1.394531 -25.164062 1.6875 -25.546875 2.125 -25.984375 C 2.519531 -26.390625 2.71875 -26.671875 2.71875 -26.828125 C 2.71875 -26.992188 2.828125 -27.039062 3.046875 -26.96875 C 3.335938 -26.894531 3.539062 -26.804688 3.65625 -26.703125 C 3.945312 -26.441406 4.414062 -26.265625 5.0625 -26.171875 C 5.71875 -26.085938 6.242188 -26.046875 6.640625 -26.046875 C 6.753906 -26.046875 6.9375 -26.050781 7.1875 -26.0625 C 7.445312 -26.082031 7.710938 -26.101562 7.984375 -26.125 C 8.253906 -26.144531 8.5 -26.171875 8.71875 -26.203125 C 8.9375 -26.242188 9.0625 -26.28125 9.09375 -26.3125 C 9.164062 -26.382812 9.148438 -27.113281 9.046875 -28.5 C 9.046875 -28.675781 9.007812 -29.007812 8.9375 -29.5 C 8.863281 -29.988281 8.789062 -30.503906 8.71875 -31.046875 C 8.644531 -31.597656 8.550781 -32.109375 8.4375 -32.578125 C 8.332031 -33.054688 8.242188 -33.367188 8.171875 -33.515625 C 8.066406 -33.617188 7.992188 -33.722656 7.953125 -33.828125 C 7.921875 -33.941406 7.882812 -34.050781 7.84375 -34.15625 C 7.738281 -34.414062 7.738281 -34.660156 7.84375 -34.890625 C 7.957031 -35.128906 8.101562 -35.285156 8.28125 -35.359375 C 8.457031 -35.429688 8.640625 -35.554688 8.828125 -35.734375 C 9.148438 -36.171875 9.675781 -36.484375 10.40625 -36.671875 Z M 10.40625 -36.671875 "/></g></g></g><g fill="#000000" fill-opacity="1"><g transform="translate(159.963179, 76.171301)"><g><path d="M 18.09375 -21.359375 C 16.238281 -21.359375 14.753906 -20.800781 13.640625 -19.6875 C 12.535156 -18.582031 11.675781 -17.234375 11.0625 -15.640625 L 10.734375 -14.765625 L 11.0625 -14.765625 C 11.5 -14.765625 12.003906 -14.800781 12.578125 -14.875 C 13.160156 -14.945312 13.757812 -15.035156 14.375 -15.140625 C 15 -15.253906 15.59375 -15.375 16.15625 -15.5 C 16.71875 -15.625 17.21875 -15.742188 17.65625 -15.859375 C 20.050781 -16.503906 21.25 -17.570312 21.25 -19.0625 C 21.25 -19.570312 21.15625 -19.972656 20.96875 -20.265625 C 20.789062 -20.554688 20.554688 -20.78125 20.265625 -20.9375 C 19.972656 -21.101562 19.632812 -21.210938 19.25 -21.265625 C 18.875 -21.328125 18.488281 -21.359375 18.09375 -21.359375 Z M 18.09375 -27.84375 C 20.050781 -27.84375 21.925781 -27.457031 23.71875 -26.6875 C 25.519531 -25.925781 27.003906 -24.675781 28.171875 -22.9375 C 29.179688 -21.445312 29.707031 -19.90625 29.75 -18.3125 C 29.78125 -16.925781 29.488281 -15.617188 28.875 -14.390625 C 28.550781 -13.835938 28.0625 -13.234375 27.40625 -12.578125 C 27.113281 -12.296875 26.847656 -12.050781 26.609375 -11.84375 C 26.378906 -11.644531 26.171875 -11.457031 25.984375 -11.28125 C 25.441406 -10.84375 24.632812 -10.457031 23.5625 -10.125 C 22.488281 -9.800781 21.332031 -9.519531 20.09375 -9.28125 C 18.863281 -9.050781 17.65625 -8.878906 16.46875 -8.765625 C 15.289062 -8.660156 14.320312 -8.609375 13.5625 -8.609375 C 12.800781 -8.566406 12.3125 -8.507812 12.09375 -8.4375 C 11.875 -8.375 11.640625 -8.359375 11.390625 -8.390625 C 11.128906 -8.421875 10.925781 -8.421875 10.78125 -8.390625 C 10.632812 -8.359375 10.550781 -8.3125 10.53125 -8.25 C 10.519531 -8.195312 10.53125 -8.023438 10.5625 -7.734375 C 10.632812 -6.859375 10.960938 -6.117188 11.546875 -5.515625 C 12.128906 -4.921875 12.816406 -4.429688 13.609375 -4.046875 C 14.410156 -3.671875 15.265625 -3.390625 16.171875 -3.203125 C 17.085938 -3.023438 17.910156 -2.9375 18.640625 -2.9375 C 20.921875 -2.9375 23.097656 -3.644531 25.171875 -5.0625 C 25.347656 -5.175781 25.535156 -5.332031 25.734375 -5.53125 C 25.941406 -5.726562 26.125 -5.925781 26.28125 -6.125 C 26.445312 -6.320312 26.59375 -6.507812 26.71875 -6.6875 C 26.851562 -6.875 26.921875 -7.003906 26.921875 -7.078125 C 26.921875 -7.296875 27.007812 -7.316406 27.1875 -7.140625 C 27.332031 -7.023438 27.421875 -6.390625 27.453125 -5.234375 C 27.492188 -4.609375 27.519531 -4.015625 27.53125 -3.453125 C 27.550781 -2.890625 27.546875 -2.335938 27.515625 -1.796875 C 27.515625 -0.628906 27.492188 0.0390625 27.453125 0.21875 C 27.273438 1.164062 26.757812 1.921875 25.90625 2.484375 C 25.050781 3.046875 24.078125 3.476562 22.984375 3.78125 C 21.898438 4.09375 20.796875 4.300781 19.671875 4.40625 C 18.546875 4.519531 17.597656 4.578125 16.828125 4.578125 C 15.273438 4.535156 13.859375 4.40625 12.578125 4.1875 C 11.304688 3.976562 10.144531 3.597656 9.09375 3.046875 C 8.039062 2.503906 7.066406 1.769531 6.171875 0.84375 C 5.285156 -0.0820312 4.445312 -1.289062 3.65625 -2.78125 C 2.3125 -5.351562 1.640625 -8.148438 1.640625 -11.171875 C 1.640625 -14.515625 2.617188 -17.78125 4.578125 -20.96875 C 5.234375 -22.132812 6.066406 -23.144531 7.078125 -24 C 8.097656 -24.851562 9.21875 -25.5625 10.4375 -26.125 C 11.65625 -26.6875 12.925781 -27.113281 14.25 -27.40625 C 15.570312 -27.695312 16.851562 -27.84375 18.09375 -27.84375 Z M 18.09375 -27.84375 "/></g></g></g><g fill="#000000" fill-opacity="1"><g transform="translate(191.833553, 76.171301)"><g><path d="M 6.96875 -39.5625 C 7.445312 -39.5625 7.957031 -39.429688 8.5 -39.171875 C 8.71875 -39.066406 8.941406 -38.96875 9.171875 -38.875 C 9.410156 -38.78125 9.660156 -38.695312 9.921875 -38.625 C 10.390625 -38.445312 10.773438 -38.203125 11.078125 -37.890625 C 11.390625 -37.585938 11.800781 -37.234375 12.3125 -36.828125 C 12.820312 -36.429688 13.164062 -35.90625 13.34375 -35.25 C 13.53125 -34.59375 13.515625 -33.957031 13.296875 -33.34375 C 13.222656 -33.09375 13.101562 -32.640625 12.9375 -31.984375 C 12.769531 -31.328125 12.617188 -30.453125 12.484375 -29.359375 C 12.078125 -26.171875 11.8125 -23.148438 11.6875 -20.296875 C 11.5625 -17.441406 11.5 -14.414062 11.5 -11.21875 C 11.5 -9.507812 11.503906 -8.144531 11.515625 -7.125 C 11.535156 -6.113281 11.546875 -5.445312 11.546875 -5.125 C 11.546875 -4.757812 11.554688 -4.484375 11.578125 -4.296875 C 11.597656 -4.117188 11.609375 -3.992188 11.609375 -3.921875 C 11.679688 -3.816406 11.804688 -3.707031 11.984375 -3.59375 C 12.128906 -3.519531 12.238281 -3.445312 12.3125 -3.375 C 12.382812 -3.300781 12.492188 -3.285156 12.640625 -3.328125 C 13.296875 -3.546875 14.054688 -3.726562 14.921875 -3.875 C 15.796875 -4.019531 16.632812 -4.21875 17.4375 -4.46875 C 17.6875 -4.539062 17.894531 -4.601562 18.0625 -4.65625 C 18.226562 -4.707031 18.347656 -4.753906 18.421875 -4.796875 C 18.453125 -4.828125 18.539062 -4.753906 18.6875 -4.578125 C 18.726562 -4.429688 18.675781 -4.195312 18.53125 -3.875 C 17.875 -2.925781 17.035156 -1.472656 16.015625 0.484375 C 15.328125 1.796875 14.859375 2.597656 14.609375 2.890625 C 14.023438 3.578125 13.3125 4.054688 12.46875 4.328125 C 11.632812 4.597656 10.800781 4.734375 9.96875 4.734375 C 8.738281 4.734375 7.585938 4.429688 6.515625 3.828125 C 5.441406 3.234375 4.613281 2.394531 4.03125 1.3125 C 3.78125 0.800781 3.597656 -0.109375 3.484375 -1.421875 C 3.304688 -3.847656 3.195312 -6.269531 3.15625 -8.6875 C 3.125 -11.101562 3.109375 -13.53125 3.109375 -15.96875 C 3.109375 -18.800781 3.113281 -21.132812 3.125 -22.96875 C 3.144531 -24.800781 3.175781 -26.15625 3.21875 -27.03125 C 3.394531 -31.238281 3.335938 -34.015625 3.046875 -35.359375 C 2.972656 -35.648438 2.898438 -35.875 2.828125 -36.03125 C 2.753906 -36.195312 2.679688 -36.351562 2.609375 -36.5 C 2.460938 -36.789062 2.390625 -37.03125 2.390625 -37.21875 C 2.390625 -37.4375 2.789062 -37.816406 3.59375 -38.359375 C 4.207031 -38.753906 4.742188 -39.035156 5.203125 -39.203125 C 5.660156 -39.367188 6.25 -39.488281 6.96875 -39.5625 Z M 6.96875 -39.5625 "/></g></g></g><g fill="#134e4a" fill-opacity="1"><g transform="translate(210.034546, 76.171301)"><g><path d="M 19.34375 -37.328125 C 20 -37.429688 20.796875 -37.484375 21.734375 -37.484375 C 22.785156 -37.484375 23.820312 -37.460938 24.84375 -37.421875 C 25.863281 -37.390625 26.878906 -37.285156 27.890625 -37.109375 C 29.160156 -36.921875 30.109375 -36.300781 30.734375 -35.25 C 30.835938 -35.070312 30.914062 -34.9375 30.96875 -34.84375 C 31.03125 -34.75 31.097656 -34.664062 31.171875 -34.59375 C 31.316406 -34.445312 31.367188 -34.347656 31.328125 -34.296875 C 31.296875 -34.242188 31.382812 -34 31.59375 -33.5625 C 31.738281 -33.382812 31.847656 -33.1875 31.921875 -32.96875 C 31.992188 -32.75 32.066406 -32.492188 32.140625 -32.203125 C 32.210938 -31.941406 32.257812 -31.691406 32.28125 -31.453125 C 32.300781 -31.222656 32.273438 -31 32.203125 -30.78125 C 32.054688 -29.945312 31.785156 -29.367188 31.390625 -29.046875 C 31.054688 -28.785156 30.546875 -28.675781 29.859375 -28.71875 C 29.347656 -28.789062 28.960938 -28.753906 28.703125 -28.609375 C 28.453125 -28.460938 28.203125 -28.460938 27.953125 -28.609375 C 27.804688 -28.710938 27.5 -28.726562 27.03125 -28.65625 C 26.15625 -28.476562 25.046875 -28.367188 23.703125 -28.328125 C 23.335938 -28.296875 22.800781 -28.242188 22.09375 -28.171875 C 21.382812 -28.097656 20.519531 -27.988281 19.5 -27.84375 C 19.03125 -27.769531 18.78125 -27.75 18.75 -27.78125 C 18.75 -27.78125 18.910156 -27.890625 19.234375 -28.109375 C 19.523438 -28.296875 19.660156 -28.425781 19.640625 -28.5 C 19.617188 -28.570312 19.425781 -28.609375 19.0625 -28.609375 C 18.882812 -28.609375 18.492188 -28.539062 17.890625 -28.40625 C 17.296875 -28.28125 16.671875 -28.132812 16.015625 -27.96875 C 15.359375 -27.8125 14.757812 -27.648438 14.21875 -27.484375 C 13.675781 -27.316406 13.347656 -27.179688 13.234375 -27.078125 C 13.203125 -27.046875 13.148438 -26.789062 13.078125 -26.3125 C 13.003906 -25.84375 12.945312 -25.328125 12.90625 -24.765625 C 12.875 -24.203125 12.835938 -23.675781 12.796875 -23.1875 C 12.765625 -22.695312 12.75 -22.378906 12.75 -22.234375 C 12.707031 -21.140625 12.707031 -20.59375 12.75 -20.59375 C 12.78125 -20.59375 13.0625 -20.640625 13.59375 -20.734375 C 14.125 -20.828125 14.878906 -20.960938 15.859375 -21.140625 C 17.160156 -21.390625 18.445312 -21.566406 19.71875 -21.671875 C 20.988281 -21.785156 22.296875 -21.84375 23.640625 -21.84375 C 26.660156 -21.84375 28.515625 -21.679688 29.203125 -21.359375 C 29.597656 -21.171875 29.921875 -20.894531 30.171875 -20.53125 C 30.429688 -20.175781 30.5625 -19.816406 30.5625 -19.453125 C 30.5625 -19.378906 30.707031 -18.941406 31 -18.140625 C 31.21875 -17.484375 31.367188 -16.890625 31.453125 -16.359375 C 31.546875 -15.835938 31.503906 -15.394531 31.328125 -15.03125 C 31.035156 -14.414062 30.6875 -13.988281 30.28125 -13.75 C 29.882812 -13.519531 29.21875 -13.347656 28.28125 -13.234375 C 27.726562 -13.160156 27.367188 -13.085938 27.203125 -13.015625 C 27.046875 -12.941406 26.785156 -12.890625 26.421875 -12.859375 C 26.128906 -12.785156 25.945312 -12.738281 25.875 -12.71875 C 25.800781 -12.695312 25.675781 -12.722656 25.5 -12.796875 C 25.28125 -12.867188 25.125 -12.867188 25.03125 -12.796875 C 24.945312 -12.722656 24.796875 -12.757812 24.578125 -12.90625 C 24.390625 -13.019531 24.203125 -13.117188 24.015625 -13.203125 C 23.835938 -13.296875 23.660156 -13.34375 23.484375 -13.34375 C 23.265625 -13.34375 22.945312 -13.316406 22.53125 -13.265625 C 22.113281 -13.210938 21.5625 -13.148438 20.875 -13.078125 C 19.5625 -12.890625 18.867188 -12.832031 18.796875 -12.90625 C 18.835938 -12.945312 18.820312 -12.984375 18.75 -13.015625 C 18.164062 -13.203125 17.671875 -13.222656 17.265625 -13.078125 C 17.046875 -13.003906 16.882812 -12.96875 16.78125 -12.96875 C 16.675781 -12.96875 16.691406 -13.019531 16.828125 -13.125 C 16.941406 -13.195312 16.988281 -13.234375 16.96875 -13.234375 C 16.945312 -13.234375 16.867188 -13.234375 16.734375 -13.234375 C 16.691406 -13.203125 16.398438 -13.148438 15.859375 -13.078125 C 14.910156 -12.890625 14.171875 -12.75 13.640625 -12.65625 C 13.117188 -12.570312 12.820312 -12.492188 12.75 -12.421875 C 12.632812 -12.316406 12.550781 -11.925781 12.5 -11.25 C 12.445312 -10.582031 12.398438 -9.835938 12.359375 -9.015625 C 12.328125 -8.203125 12.3125 -7.40625 12.3125 -6.625 C 12.3125 -5.84375 12.3125 -5.304688 12.3125 -5.015625 C 12.28125 -4.867188 13.734375 -4.90625 16.671875 -5.125 C 18.671875 -5.300781 20.332031 -5.4375 21.65625 -5.53125 C 22.976562 -5.625 24.3125 -5.671875 25.65625 -5.671875 C 25.914062 -5.671875 26.269531 -5.660156 26.71875 -5.640625 C 27.175781 -5.617188 27.640625 -5.585938 28.109375 -5.546875 C 28.585938 -5.515625 29.023438 -5.453125 29.421875 -5.359375 C 29.816406 -5.273438 30.070312 -5.160156 30.1875 -5.015625 C 30.289062 -4.898438 30.351562 -4.816406 30.375 -4.765625 C 30.394531 -4.710938 30.421875 -4.65625 30.453125 -4.59375 C 30.492188 -4.539062 30.554688 -4.453125 30.640625 -4.328125 C 30.734375 -4.203125 30.890625 -4.03125 31.109375 -3.8125 C 31.503906 -3.375 31.859375 -2.816406 32.171875 -2.140625 C 32.484375 -1.472656 32.675781 -0.867188 32.75 -0.328125 C 32.851562 0.0664062 32.882812 0.457031 32.84375 0.84375 C 32.8125 1.226562 32.742188 1.582031 32.640625 1.90625 C 32.492188 2.34375 32.210938 2.742188 31.796875 3.109375 C 31.378906 3.472656 30.878906 3.78125 30.296875 4.03125 C 29.890625 4.175781 29.382812 4.285156 28.78125 4.359375 C 28.1875 4.429688 27.800781 4.429688 27.625 4.359375 C 27.476562 4.242188 27.1875 4.1875 26.75 4.1875 C 26.570312 4.15625 26.425781 4.128906 26.3125 4.109375 C 26.207031 4.097656 26.0625 4.070312 25.875 4.03125 C 25.695312 3.957031 25.507812 3.898438 25.3125 3.859375 C 25.113281 3.828125 24.867188 3.796875 24.578125 3.765625 C 24.390625 3.722656 24.113281 3.675781 23.75 3.625 C 23.382812 3.570312 23.148438 3.546875 23.046875 3.546875 C 22.359375 3.429688 21.722656 3.347656 21.140625 3.296875 C 20.554688 3.242188 19.703125 3.21875 18.578125 3.21875 C 16.867188 3.21875 15.140625 3.269531 13.390625 3.375 C 11.648438 3.488281 9.96875 3.742188 8.34375 4.140625 C 7.789062 4.242188 7.242188 4.296875 6.703125 4.296875 C 6.015625 4.296875 5.359375 4.085938 4.734375 3.671875 C 4.117188 3.253906 3.664062 2.738281 3.375 2.125 C 3.007812 1.175781 2.9375 0.210938 3.15625 -0.765625 C 3.195312 -0.941406 3.242188 -1.164062 3.296875 -1.4375 C 3.347656 -1.71875 3.375 -2.035156 3.375 -2.390625 C 3.445312 -4.140625 3.507812 -5.882812 3.5625 -7.625 C 3.625 -9.375 3.691406 -11.117188 3.765625 -12.859375 C 3.765625 -13.179688 3.769531 -13.597656 3.78125 -14.109375 C 3.800781 -14.617188 3.820312 -15.128906 3.84375 -15.640625 C 3.863281 -16.148438 3.878906 -16.613281 3.890625 -17.03125 C 3.910156 -17.445312 3.941406 -17.726562 3.984375 -17.875 C 3.984375 -18.632812 3.988281 -19.46875 4 -20.375 C 4.019531 -21.28125 4.050781 -22.316406 4.09375 -23.484375 L 4.140625 -27.234375 L 3.765625 -27.78125 C 3.328125 -28.332031 2.976562 -29.207031 2.71875 -30.40625 C 2.394531 -31.820312 2.25 -32.820312 2.28125 -33.40625 C 2.320312 -33.726562 2.382812 -34.0625 2.46875 -34.40625 C 2.5625 -34.75 2.738281 -35.066406 3 -35.359375 C 3.25 -35.609375 3.46875 -35.734375 3.65625 -35.734375 C 3.875 -35.734375 4 -35.804688 4.03125 -35.953125 C 4.101562 -36.242188 4.375 -36.335938 4.84375 -36.234375 C 5.132812 -36.160156 5.34375 -36.078125 5.46875 -35.984375 C 5.601562 -35.890625 5.722656 -35.753906 5.828125 -35.578125 C 5.898438 -35.472656 5.972656 -35.421875 6.046875 -35.421875 C 6.117188 -35.421875 6.351562 -35.4375 6.75 -35.46875 C 7.300781 -35.507812 8.019531 -35.582031 8.90625 -35.6875 C 9.800781 -35.789062 10.863281 -35.988281 12.09375 -36.28125 C 14.457031 -36.757812 16.875 -37.109375 19.34375 -37.328125 Z M 19.34375 -37.328125 "/></g></g></g><g fill="#134e4a" fill-opacity="1"><g transform="translate(244.247528, 76.171301)"><g><path d="M 19.28125 -28.765625 C 18.300781 -28.765625 17.175781 -28.617188 15.90625 -28.328125 C 15.175781 -28.222656 14.757812 -28.132812 14.65625 -28.0625 C 14.550781 -27.988281 14.515625 -27.75 14.546875 -27.34375 C 14.585938 -27.09375 14.597656 -26.773438 14.578125 -26.390625 C 14.554688 -26.015625 14.507812 -25.570312 14.4375 -25.0625 C 14.40625 -24.59375 14.378906 -24.019531 14.359375 -23.34375 C 14.335938 -22.675781 14.289062 -21.882812 14.21875 -20.96875 C 14.113281 -19.195312 14.078125 -18.289062 14.109375 -18.25 C 14.222656 -18.144531 14.859375 -18.253906 16.015625 -18.578125 C 16.554688 -18.722656 17.15625 -18.90625 17.8125 -19.125 C 18.46875 -19.34375 19.101562 -19.601562 19.71875 -19.90625 C 20.34375 -20.21875 20.914062 -20.570312 21.4375 -20.96875 C 21.96875 -21.375 22.394531 -21.8125 22.71875 -22.28125 C 23.1875 -23.007812 23.421875 -23.988281 23.421875 -25.21875 C 23.347656 -26.675781 23.003906 -27.628906 22.390625 -28.078125 C 21.773438 -28.535156 20.738281 -28.765625 19.28125 -28.765625 Z M 18.25 -37.046875 C 18.90625 -37.046875 19.660156 -37.007812 20.515625 -36.9375 C 21.367188 -36.863281 22.210938 -36.753906 23.046875 -36.609375 C 23.878906 -36.460938 24.695312 -36.28125 25.5 -36.0625 C 26.300781 -35.84375 26.972656 -35.59375 27.515625 -35.3125 C 29.398438 -34.320312 30.976562 -33.117188 32.25 -31.703125 C 33.519531 -30.285156 34.320312 -28.832031 34.65625 -27.34375 C 35.050781 -25.644531 34.976562 -23.90625 34.4375 -22.125 C 34.320312 -21.644531 34.15625 -21.160156 33.9375 -20.671875 C 33.71875 -20.179688 33.484375 -19.707031 33.234375 -19.25 C 32.984375 -18.800781 32.710938 -18.382812 32.421875 -18 C 32.128906 -17.625 31.851562 -17.328125 31.59375 -17.109375 C 31.3125 -16.859375 31.066406 -16.628906 30.859375 -16.421875 C 30.660156 -16.222656 30.488281 -16.050781 30.34375 -15.90625 C 29.65625 -15.25 29.257812 -14.921875 29.15625 -14.921875 C 29.113281 -15.035156 29.054688 -15.09375 28.984375 -15.09375 C 28.910156 -15.09375 28.875 -15.054688 28.875 -14.984375 C 28.875 -14.910156 28.710938 -14.765625 28.390625 -14.546875 C 27.910156 -14.367188 27.546875 -14.148438 27.296875 -13.890625 C 26.859375 -13.566406 26.53125 -13.367188 26.3125 -13.296875 L 25.984375 -13.125 C 25.953125 -13.125 25.914062 -13.109375 25.875 -13.078125 C 25.875 -12.929688 26.929688 -11.804688 29.046875 -9.703125 C 30.390625 -8.316406 31.519531 -7.125 32.4375 -6.125 C 33.363281 -5.125 34.046875 -4.28125 34.484375 -3.59375 C 34.597656 -3.414062 34.769531 -3.144531 35 -2.78125 C 35.238281 -2.414062 35.46875 -2.023438 35.6875 -1.609375 C 35.90625 -1.191406 36.101562 -0.800781 36.28125 -0.4375 C 36.46875 -0.0703125 36.578125 0.21875 36.609375 0.4375 C 36.722656 0.90625 36.804688 1.296875 36.859375 1.609375 C 36.910156 1.921875 36.914062 2.203125 36.875 2.453125 C 36.84375 2.703125 36.765625 2.9375 36.640625 3.15625 C 36.515625 3.375 36.304688 3.613281 36.015625 3.875 C 35.429688 4.445312 34.722656 4.878906 33.890625 5.171875 C 33.054688 5.460938 32.222656 5.609375 31.390625 5.609375 C 30.398438 5.609375 29.5625 5.351562 28.875 4.84375 C 28.695312 4.695312 28.539062 4.585938 28.40625 4.515625 C 28.28125 4.441406 28.144531 4.367188 28 4.296875 C 27.707031 4.191406 27.398438 3.976562 27.078125 3.65625 C 26.753906 3.4375 26.390625 3.160156 25.984375 2.828125 C 25.585938 2.503906 25.195312 2.148438 24.8125 1.765625 C 24.4375 1.390625 24.082031 0.992188 23.75 0.578125 C 23.425781 0.160156 23.175781 -0.226562 23 -0.59375 C 22.195312 -2.007812 21.296875 -3.4375 20.296875 -4.875 C 19.296875 -6.3125 18.269531 -7.664062 17.21875 -8.9375 C 16.75 -9.519531 16.394531 -9.945312 16.15625 -10.21875 C 15.914062 -10.488281 15.78125 -10.640625 15.75 -10.671875 C 15.675781 -10.710938 15.457031 -10.675781 15.09375 -10.5625 C 14.769531 -10.457031 14.460938 -10.40625 14.171875 -10.40625 C 13.910156 -10.40625 13.765625 -10.332031 13.734375 -10.1875 C 13.617188 -9.675781 13.507812 -8.132812 13.40625 -5.5625 C 13.289062 -3.664062 13.195312 -2.132812 13.125 -0.96875 C 13.050781 0.1875 13 0.960938 12.96875 1.359375 C 12.894531 2.191406 12.765625 2.726562 12.578125 2.96875 C 12.398438 3.207031 12.257812 3.378906 12.15625 3.484375 C 11.601562 3.921875 10.800781 4.210938 9.75 4.359375 C 9.457031 4.429688 9.179688 4.484375 8.921875 4.515625 C 8.671875 4.554688 8.457031 4.613281 8.28125 4.6875 C 7.988281 4.832031 7.753906 4.90625 7.578125 4.90625 C 7.503906 4.976562 7.101562 4.832031 6.375 4.46875 C 5.832031 4.21875 5.359375 3.953125 4.953125 3.671875 C 4.554688 3.398438 4.210938 2.992188 3.921875 2.453125 C 3.773438 2.203125 3.65625 1.96875 3.5625 1.75 C 3.476562 1.53125 3.414062 1.3125 3.375 1.09375 C 3.34375 0.875 3.328125 0.617188 3.328125 0.328125 C 3.328125 0.0351562 3.34375 -0.304688 3.375 -0.703125 C 3.414062 -1.179688 3.441406 -1.863281 3.453125 -2.75 C 3.472656 -3.644531 3.519531 -4.742188 3.59375 -6.046875 C 3.78125 -10.546875 3.914062 -14.09375 4 -16.6875 C 4.09375 -19.289062 4.15625 -21.007812 4.1875 -21.84375 C 4.226562 -22.9375 4.253906 -23.800781 4.265625 -24.4375 C 4.285156 -25.070312 4.28125 -25.476562 4.25 -25.65625 C 4.175781 -25.875 3.976562 -26.128906 3.65625 -26.421875 C 3.101562 -26.929688 2.71875 -27.550781 2.5 -28.28125 C 2.144531 -29.625 2.203125 -30.800781 2.671875 -31.8125 C 2.816406 -32.101562 2.890625 -32.671875 2.890625 -33.515625 L 2.890625 -34.703125 L 3.328125 -34.921875 C 3.472656 -35.066406 3.769531 -35.1875 4.21875 -35.28125 C 4.675781 -35.375 4.992188 -35.421875 5.171875 -35.421875 L 5.234375 -35.421875 C 5.265625 -35.378906 5.390625 -35.378906 5.609375 -35.421875 C 5.867188 -35.523438 7.210938 -35.796875 9.640625 -36.234375 C 12.472656 -36.773438 15.34375 -37.046875 18.25 -37.046875 Z M 18.25 -37.046875 "/></g></g></g><g fill="#134e4a" fill-opacity="1"><g transform="translate(282.546453, 76.171301)"><g><path d="M 18.140625 -29.3125 C 17.960938 -29.34375 17.828125 -29.367188 17.734375 -29.390625 C 17.640625 -29.410156 17.554688 -29.421875 17.484375 -29.421875 C 17.015625 -29.421875 16.453125 -29.375 15.796875 -29.28125 C 15.140625 -29.195312 14.613281 -29.0625 14.21875 -28.875 C 14.113281 -28.84375 14.0625 -28.316406 14.0625 -27.296875 C 14.09375 -26.785156 14.085938 -26.410156 14.046875 -26.171875 C 14.015625 -25.941406 13.984375 -25.804688 13.953125 -25.765625 C 13.878906 -25.691406 13.84375 -25.28125 13.84375 -24.53125 C 13.84375 -23.789062 13.820312 -22.710938 13.78125 -21.296875 C 13.78125 -20.097656 13.78125 -19.125 13.78125 -18.375 C 13.78125 -17.632812 13.765625 -17.175781 13.734375 -17 C 13.691406 -16.78125 13.671875 -16.613281 13.671875 -16.5 C 13.671875 -16.394531 13.765625 -16.34375 13.953125 -16.34375 C 14.054688 -16.34375 14.195312 -16.359375 14.375 -16.390625 C 14.5625 -16.429688 14.800781 -16.488281 15.09375 -16.5625 C 17.5625 -17.070312 19.382812 -17.78125 20.5625 -18.6875 C 21.75 -19.59375 22.488281 -20.8125 22.78125 -22.34375 C 22.851562 -22.738281 22.929688 -23.21875 23.015625 -23.78125 C 23.109375 -24.34375 23.117188 -24.929688 23.046875 -25.546875 C 23.015625 -26.171875 22.929688 -26.65625 22.796875 -27 C 22.671875 -27.34375 22.554688 -27.601562 22.453125 -27.78125 C 22.304688 -28 21.882812 -28.21875 21.1875 -28.4375 C 20.863281 -28.550781 20.613281 -28.695312 20.4375 -28.875 C 20.320312 -28.945312 20.171875 -29 19.984375 -29.03125 C 19.804688 -29.070312 19.609375 -29.113281 19.390625 -29.15625 C 19.140625 -29.1875 18.914062 -29.210938 18.71875 -29.234375 C 18.519531 -29.253906 18.328125 -29.28125 18.140625 -29.3125 Z M 13.78125 -37.65625 C 14.1875 -37.6875 14.6875 -37.707031 15.28125 -37.71875 C 15.882812 -37.738281 16.617188 -37.734375 17.484375 -37.703125 C 19.191406 -37.671875 20.769531 -37.535156 22.21875 -37.296875 C 23.675781 -37.054688 25.019531 -36.664062 26.25 -36.125 C 27.488281 -35.582031 28.644531 -34.847656 29.71875 -33.921875 C 30.789062 -32.992188 31.78125 -31.785156 32.6875 -30.296875 C 32.976562 -29.785156 33.222656 -29.238281 33.421875 -28.65625 C 33.617188 -28.070312 33.8125 -27.472656 34 -26.859375 C 34.070312 -26.609375 34.113281 -26.253906 34.125 -25.796875 C 34.144531 -25.347656 34.15625 -24.882812 34.15625 -24.40625 C 34.15625 -23.9375 34.132812 -23.472656 34.09375 -23.015625 C 34.0625 -22.566406 34.03125 -22.210938 34 -21.953125 C 33.457031 -18.941406 32.148438 -16.347656 30.078125 -14.171875 C 29.203125 -13.222656 28.640625 -12.75 28.390625 -12.75 C 28.273438 -12.75 28.179688 -12.691406 28.109375 -12.578125 C 28.003906 -12.296875 27.675781 -11.976562 27.125 -11.625 C 26.582031 -11.28125 25.96875 -10.960938 25.28125 -10.671875 C 24.59375 -10.390625 23.921875 -10.140625 23.265625 -9.921875 C 22.609375 -9.703125 22.117188 -9.554688 21.796875 -9.484375 C 21.179688 -9.335938 20.550781 -9.21875 19.90625 -9.125 C 19.269531 -9.03125 18.644531 -8.984375 18.03125 -8.984375 C 17.519531 -8.984375 16.8125 -9.078125 15.90625 -9.265625 C 15.144531 -9.441406 14.617188 -9.550781 14.328125 -9.59375 L 13.84375 -9.640625 L 13.734375 -8.828125 C 13.691406 -8.535156 13.644531 -8 13.59375 -7.21875 C 13.539062 -6.4375 13.492188 -5.101562 13.453125 -3.21875 C 13.378906 -2.09375 13.296875 -1.101562 13.203125 -0.25 C 13.117188 0.601562 12.984375 1.34375 12.796875 1.96875 C 12.617188 2.582031 12.40625 3.050781 12.15625 3.375 C 12.039062 3.445312 11.875 3.53125 11.65625 3.625 C 11.4375 3.71875 11.207031 3.804688 10.96875 3.890625 C 10.738281 3.984375 10.515625 4.066406 10.296875 4.140625 C 10.078125 4.210938 9.914062 4.25 9.8125 4.25 C 9.59375 4.25 9.351562 4.320312 9.09375 4.46875 C 8.914062 4.539062 8.707031 4.59375 8.46875 4.625 C 8.238281 4.664062 7.976562 4.6875 7.6875 4.6875 C 7.394531 4.6875 7.117188 4.664062 6.859375 4.625 C 6.609375 4.59375 6.394531 4.519531 6.21875 4.40625 C 5.851562 4.15625 5.304688 3.722656 4.578125 3.109375 C 3.921875 2.554688 3.507812 2.132812 3.34375 1.84375 C 3.1875 1.5625 3.050781 1.128906 2.9375 0.546875 C 2.90625 0.179688 3 -0.234375 3.21875 -0.703125 C 3.320312 -0.890625 3.390625 -1.054688 3.421875 -1.203125 C 3.460938 -1.347656 3.503906 -1.492188 3.546875 -1.640625 C 3.578125 -1.785156 3.59375 -2.046875 3.59375 -2.421875 C 3.59375 -2.804688 3.613281 -3.328125 3.65625 -3.984375 C 3.875 -9.929688 4.015625 -14.675781 4.078125 -18.21875 C 4.148438 -21.757812 4.15625 -24.128906 4.09375 -25.328125 C 4.019531 -26.128906 3.984375 -26.613281 3.984375 -26.78125 C 3.984375 -26.945312 3.910156 -27.082031 3.765625 -27.1875 C 2.671875 -27.988281 1.941406 -28.804688 1.578125 -29.640625 C 1.066406 -30.617188 0.882812 -31.78125 1.03125 -33.125 C 1.070312 -33.59375 1.097656 -33.9375 1.109375 -34.15625 C 1.128906 -34.375 1.140625 -34.503906 1.140625 -34.546875 C 1.109375 -34.722656 1.328125 -34.910156 1.796875 -35.109375 C 2.265625 -35.316406 3.207031 -35.597656 4.625 -35.953125 C 6.15625 -36.359375 7.679688 -36.710938 9.203125 -37.015625 C 10.734375 -37.328125 12.257812 -37.539062 13.78125 -37.65625 Z M 13.78125 -37.65625 "/></g></g></g></svg>