<svg xmlns="http://www.w3.org/2000/svg" xmlns:xlink="http://www.w3.org/1999/xlink" width="367" zoomAndPan="magnify" viewBox="0 0 275.25 104.999996" height="140" preserveAspectRatio="xMidYMid meet" version="1.0"><defs><g/></defs><g fill="#000000" fill-opacity="1"><g transform="translate(21.132406, 70.69042)"><g><path d="M 31.21875 -30.34375 L 31.640625 -21.625 L 30.953125 -21.625 L 31.015625 -20.484375 C 31.148438 -16.921875 31.242188 -13.5 31.296875 -10.21875 C 31.347656 -6.9375 31.425781 -4.238281 31.53125 -2.125 C 31.5 -1.78125 31.457031 -1.398438 31.40625 -0.984375 C 31.351562 -0.566406 31.222656 -0.222656 31.015625 0.046875 C 30.523438 -0.0546875 30.046875 -0.453125 29.578125 -1.140625 C 29.117188 -1.828125 28.6875 -2.65625 28.28125 -3.625 C 27.882812 -4.59375 27.539062 -5.550781 27.25 -6.5 C 26.957031 -7.457031 26.757812 -8.265625 26.65625 -8.921875 C 26.519531 -10.203125 26.414062 -11.6875 26.34375 -13.375 C 26.269531 -15.070312 26.203125 -16.867188 26.140625 -18.765625 L 26.078125 -21.46875 C 24.210938 -21.394531 22.25 -21.289062 20.1875 -21.15625 C 18.132812 -21.019531 16.191406 -20.863281 14.359375 -20.6875 C 12.523438 -20.519531 11.003906 -20.332031 9.796875 -20.125 C 9.660156 -16.632812 9.5 -13.296875 9.3125 -10.109375 C 9.125 -6.929688 8.992188 -4.304688 8.921875 -2.234375 C 8.847656 -1.890625 8.773438 -1.507812 8.703125 -1.09375 C 8.640625 -0.675781 8.488281 -0.328125 8.25 -0.046875 C 7.757812 -0.148438 7.304688 -0.546875 6.890625 -1.234375 C 6.484375 -1.929688 6.113281 -2.765625 5.78125 -3.734375 C 5.457031 -4.703125 5.191406 -5.671875 4.984375 -6.640625 C 4.773438 -7.609375 4.632812 -8.421875 4.5625 -9.078125 C 4.53125 -10.316406 4.539062 -11.785156 4.59375 -13.484375 C 4.644531 -15.179688 4.722656 -16.976562 4.828125 -18.875 L 4.046875 -18.921875 C 3.941406 -19.828125 3.742188 -20.5625 3.453125 -21.125 C 3.160156 -21.695312 2.882812 -22.296875 2.625 -22.921875 C 2.363281 -23.546875 2.179688 -24.359375 2.078125 -25.359375 C 2.597656 -25.535156 3.132812 -25.769531 3.6875 -26.0625 C 4.238281 -26.351562 4.789062 -26.566406 5.34375 -26.703125 C 5.507812 -29.296875 5.632812 -31.800781 5.71875 -34.21875 C 5.8125 -36.644531 5.835938 -38.84375 5.796875 -40.8125 C 5.765625 -42.78125 5.597656 -44.40625 5.296875 -45.6875 C 5.296875 -46.445312 5.550781 -46.738281 6.0625 -46.5625 C 7.375 -46.394531 8.1875 -45.460938 8.5 -43.765625 C 9.125 -42.179688 9.539062 -39.953125 9.75 -37.078125 C 9.957031 -34.210938 10.046875 -31.082031 10.015625 -27.6875 C 10.566406 -27.96875 11.421875 -28.21875 12.578125 -28.4375 C 13.734375 -28.664062 15.070312 -28.875 16.59375 -29.0625 C 18.113281 -29.257812 19.691406 -29.441406 21.328125 -29.609375 C 22.972656 -29.785156 24.523438 -29.925781 25.984375 -30.03125 C 25.953125 -33.207031 25.832031 -36.1875 25.625 -38.96875 C 25.414062 -41.75 25.066406 -43.9375 24.578125 -45.53125 C 24.472656 -46.289062 24.71875 -46.585938 25.3125 -46.421875 C 26.625 -46.242188 27.503906 -45.328125 27.953125 -43.671875 C 28.609375 -42.285156 29.132812 -40.414062 29.53125 -38.0625 C 29.925781 -35.707031 30.226562 -33.113281 30.4375 -30.28125 C 30.582031 -30.320312 30.710938 -30.34375 30.828125 -30.34375 C 30.953125 -30.34375 31.082031 -30.34375 31.21875 -30.34375 Z M 31.21875 -30.34375 "/></g></g></g><g fill="#000000" fill-opacity="1"><g transform="translate(55.252839, 70.69042)"><g><path d="M 13.125 -29.71875 L 13.53125 -30.546875 C 13.84375 -30.617188 14.3125 -30.398438 14.9375 -29.890625 C 15.5625 -29.390625 16.253906 -28.734375 17.015625 -27.921875 C 17.773438 -27.109375 18.507812 -26.234375 19.21875 -25.296875 C 19.925781 -24.367188 20.53125 -23.503906 21.03125 -22.703125 C 21.53125 -21.910156 21.832031 -21.289062 21.9375 -20.84375 L 22.875 -20.953125 C 22.875 -18.835938 22.671875 -16.613281 22.265625 -14.28125 C 21.867188 -11.945312 21.222656 -9.757812 20.328125 -7.71875 C 19.429688 -5.6875 18.226562 -3.976562 16.71875 -2.59375 C 15.21875 -1.207031 13.34375 -0.378906 11.09375 -0.109375 C 9.4375 -0.00390625 8.070312 -0.285156 7 -0.953125 C 5.925781 -1.628906 4.972656 -2.535156 4.140625 -3.671875 C 3.316406 -4.816406 2.421875 -6.03125 1.453125 -7.3125 C 0.484375 -8.726562 0.0234375 -10.082031 0.078125 -11.375 C 0.128906 -12.675781 0.429688 -14.15625 0.984375 -15.8125 L 2.546875 -20.75 C 3.546875 -22.882812 4.664062 -24.570312 5.90625 -25.8125 C 7.15625 -27.0625 8.625 -28.066406 10.3125 -28.828125 C 10.875 -29.078125 11.382812 -29.234375 11.84375 -29.296875 C 12.3125 -29.367188 12.738281 -29.507812 13.125 -29.71875 Z M 4.765625 -6.6875 C 5.316406 -6.375 5.765625 -6.128906 6.109375 -5.953125 C 6.460938 -5.785156 6.972656 -5.726562 7.640625 -5.78125 C 8.316406 -5.832031 9.414062 -6 10.9375 -6.28125 C 12.664062 -6.65625 14.003906 -7.378906 14.953125 -8.453125 C 15.910156 -9.523438 16.640625 -10.785156 17.140625 -12.234375 C 17.640625 -13.691406 18.050781 -15.1875 18.375 -16.71875 C 18.707031 -18.257812 19.117188 -19.671875 19.609375 -20.953125 C 19.015625 -21.578125 18.519531 -22.140625 18.125 -22.640625 C 17.726562 -23.140625 17.257812 -23.535156 16.71875 -23.828125 C 16.1875 -24.117188 15.421875 -24.234375 14.421875 -24.171875 C 12.441406 -23.890625 10.90625 -23.289062 9.8125 -22.375 C 8.726562 -21.457031 7.84375 -20.066406 7.15625 -18.203125 C 6.46875 -16.335938 5.757812 -13.847656 5.03125 -10.734375 C 4.925781 -10.046875 4.769531 -9.363281 4.5625 -8.6875 C 4.351562 -8.007812 4.421875 -7.34375 4.765625 -6.6875 Z M 4.765625 -6.6875 "/></g></g></g><g fill="#000000" fill-opacity="1"><g transform="translate(79.417159, 70.69042)"><g><path d="M 21.359375 -11.71875 L 22.609375 -8.34375 C 22.710938 -7.757812 22.789062 -7.101562 22.84375 -6.375 C 22.894531 -5.65625 22.773438 -5 22.484375 -4.40625 C 22.191406 -3.820312 21.507812 -3.390625 20.4375 -3.109375 C 19.78125 -2.867188 19.171875 -2.648438 18.609375 -2.453125 C 18.054688 -2.265625 17.441406 -2.078125 16.765625 -1.890625 C 16.097656 -1.703125 15.226562 -1.46875 14.15625 -1.1875 C 13.082031 -0.914062 11.664062 -0.570312 9.90625 -0.15625 C 8.488281 0.0195312 7.3125 -0.0234375 6.375 -0.296875 C 5.445312 -0.578125 4.617188 -1.003906 3.890625 -1.578125 C 3.160156 -2.148438 2.414062 -2.765625 1.65625 -3.421875 C 1.238281 -4.253906 1.191406 -4.796875 1.515625 -5.046875 C 1.847656 -5.304688 2.382812 -5.421875 3.125 -5.390625 C 3.875 -5.359375 4.695312 -5.289062 5.59375 -5.1875 C 6.5 -5.082031 7.332031 -5.066406 8.09375 -5.140625 C 8.957031 -5.203125 9.914062 -5.351562 10.96875 -5.59375 C 12.019531 -5.84375 13.0625 -6.164062 14.09375 -6.5625 C 15.132812 -6.957031 16.046875 -7.421875 16.828125 -7.953125 C 17.609375 -8.492188 18.117188 -9.09375 18.359375 -9.75 C 18.535156 -10.226562 18.316406 -10.65625 17.703125 -11.03125 C 17.097656 -11.414062 16.273438 -11.738281 15.234375 -12 C 14.203125 -12.257812 13.109375 -12.484375 11.953125 -12.671875 C 10.796875 -12.867188 9.734375 -13.046875 8.765625 -13.203125 C 7.796875 -13.359375 7.085938 -13.503906 6.640625 -13.640625 C 5.640625 -13.953125 4.59375 -14.492188 3.5 -15.265625 C 2.40625 -16.046875 1.519531 -16.945312 0.84375 -17.96875 C 0.175781 -18.988281 -0.0664062 -19.984375 0.109375 -20.953125 C 0.316406 -21.953125 0.898438 -22.863281 1.859375 -23.6875 C 2.828125 -24.519531 3.929688 -25.265625 5.171875 -25.921875 C 6.421875 -26.585938 7.550781 -27.175781 8.5625 -27.6875 C 9.726562 -28.28125 10.875 -28.65625 12 -28.8125 C 13.125 -28.96875 14.144531 -29.070312 15.0625 -29.125 C 15.976562 -29.175781 16.679688 -29.320312 17.171875 -29.5625 C 17.679688 -30.351562 18.160156 -30.710938 18.609375 -30.640625 C 19.066406 -30.578125 19.414062 -30.507812 19.65625 -30.4375 L 22.34375 -26.34375 C 22.832031 -25.269531 22.9375 -24.671875 22.65625 -24.546875 C 22.382812 -24.429688 21.695312 -24.492188 20.59375 -24.734375 C 17.6875 -25.328125 14.960938 -25.21875 12.421875 -24.40625 C 9.878906 -23.59375 7.691406 -22.300781 5.859375 -20.53125 C 5.785156 -20.46875 5.65625 -20.3125 5.46875 -20.0625 C 5.28125 -19.820312 5.191406 -19.570312 5.203125 -19.3125 C 5.222656 -19.050781 5.476562 -18.800781 5.96875 -18.5625 L 16.03125 -16.4375 C 17.34375 -15.882812 18.34375 -15.359375 19.03125 -14.859375 C 19.71875 -14.359375 20.226562 -13.859375 20.5625 -13.359375 C 20.894531 -12.859375 21.160156 -12.3125 21.359375 -11.71875 Z M 21.359375 -11.71875 "/></g></g></g><g fill="#000000" fill-opacity="1"><g transform="translate(103.322198, 70.69042)"><g><path d="M 10.21875 -2.640625 C 10.21875 -2.640625 10.144531 -2.472656 10 -2.140625 C 9.863281 -1.816406 9.675781 -1.460938 9.4375 -1.078125 C 9.195312 -0.703125 8.945312 -0.410156 8.6875 -0.203125 C 8.425781 0.00390625 8.15625 -0.015625 7.875 -0.265625 C 7.46875 -0.640625 7.082031 -1.285156 6.71875 -2.203125 C 6.351562 -3.117188 6.054688 -4.085938 5.828125 -5.109375 C 5.609375 -6.128906 5.460938 -6.96875 5.390625 -7.625 C 5.285156 -9.90625 5.300781 -12.132812 5.4375 -14.3125 C 5.582031 -16.488281 5.707031 -18.738281 5.8125 -21.0625 C 5.363281 -21.019531 4.910156 -20.894531 4.453125 -20.6875 C 4.003906 -20.476562 3.554688 -20.34375 3.109375 -20.28125 C 2.421875 -20.175781 1.875 -20.351562 1.46875 -20.8125 C 1.070312 -21.28125 0.769531 -21.882812 0.5625 -22.625 C 0.363281 -23.375 0.226562 -24.117188 0.15625 -24.859375 C 0.0820312 -25.609375 0.03125 -26.207031 0 -26.65625 L 6.015625 -28 C 6.085938 -30.25 6.125 -32.359375 6.125 -34.328125 C 6.125 -36.296875 5.984375 -37.851562 5.703125 -39 C 5.703125 -39.65625 5.910156 -39.894531 6.328125 -39.71875 C 6.910156 -39.6875 7.390625 -39.347656 7.765625 -38.703125 C 8.148438 -38.066406 8.445312 -37.28125 8.65625 -36.34375 C 8.863281 -35.414062 9.023438 -34.453125 9.140625 -33.453125 C 9.265625 -32.453125 9.34375 -31.535156 9.375 -30.703125 C 9.414062 -29.867188 9.4375 -29.265625 9.4375 -28.890625 L 16.328125 -30.546875 C 16.472656 -30.578125 16.648438 -30.332031 16.859375 -29.8125 C 17.066406 -29.300781 17.269531 -28.679688 17.46875 -27.953125 C 17.675781 -27.222656 17.859375 -26.5625 18.015625 -25.96875 C 18.171875 -25.382812 18.269531 -25.023438 18.3125 -24.890625 C 18 -24.722656 17.4375 -24.523438 16.625 -24.296875 C 15.8125 -24.066406 14.910156 -23.832031 13.921875 -23.59375 C 12.941406 -23.351562 12.046875 -23.109375 11.234375 -22.859375 C 10.421875 -22.617188 9.859375 -22.398438 9.546875 -22.203125 C 9.503906 -20.160156 9.445312 -18.109375 9.375 -16.046875 C 9.3125 -13.992188 9.242188 -11.945312 9.171875 -9.90625 L 9.171875 -9.859375 L 14.578125 -13.21875 C 15.992188 -13.945312 17.0625 -14.5625 17.78125 -15.0625 C 18.507812 -15.5625 19.035156 -15.8125 19.359375 -15.8125 C 19.691406 -15.8125 19.976562 -15.445312 20.21875 -14.71875 C 20.46875 -14 20.796875 -12.789062 21.203125 -11.09375 C 20.335938 -10.019531 19.257812 -8.972656 17.96875 -7.953125 C 16.675781 -6.941406 15.34375 -5.984375 13.96875 -5.078125 C 12.601562 -4.179688 11.351562 -3.367188 10.21875 -2.640625 Z M 10.21875 -2.640625 "/></g></g></g><g fill="#000000" fill-opacity="1"><g transform="translate(125.516031, 70.69042)"><g><path d="M 19.8125 -10.21875 C 19.914062 -9.664062 20.085938 -9.0625 20.328125 -8.40625 C 20.566406 -7.75 20.726562 -7.085938 20.8125 -6.421875 C 20.90625 -5.765625 20.835938 -5.132812 20.609375 -4.53125 C 20.390625 -3.925781 19.863281 -3.382812 19.03125 -2.90625 C 18.445312 -2.59375 17.765625 -2.203125 16.984375 -1.734375 C 16.203125 -1.265625 15.414062 -0.859375 14.625 -0.515625 C 13.832031 -0.171875 13.085938 0.015625 12.390625 0.046875 C 9.078125 -1.054688 6.484375 -2.394531 4.609375 -3.96875 C 2.742188 -5.539062 1.472656 -7.25 0.796875 -9.09375 C 0.128906 -10.945312 -0.09375 -12.832031 0.125 -14.75 C 0.351562 -16.664062 0.929688 -18.53125 1.859375 -20.34375 C 2.796875 -22.164062 3.9375 -23.816406 5.28125 -25.296875 C 6.632812 -26.785156 8.085938 -28.023438 9.640625 -29.015625 C 11.203125 -30.003906 12.722656 -30.648438 14.203125 -30.953125 C 15.691406 -31.265625 17.03125 -31.125 18.21875 -30.53125 C 19.414062 -29.945312 20.328125 -28.8125 20.953125 -27.125 C 21.265625 -26.394531 21.582031 -25.546875 21.90625 -24.578125 C 22.238281 -23.609375 22.515625 -22.640625 22.734375 -21.671875 C 22.960938 -20.703125 23.078125 -19.828125 23.078125 -19.046875 C 23.078125 -18.273438 22.90625 -17.734375 22.5625 -17.421875 C 21.90625 -17.316406 20.898438 -17.148438 19.546875 -16.921875 C 18.203125 -16.703125 16.695312 -16.425781 15.03125 -16.09375 C 13.375 -15.769531 11.765625 -15.414062 10.203125 -15.03125 C 8.648438 -14.65625 7.320312 -14.273438 6.21875 -13.890625 C 5.113281 -13.515625 4.457031 -13.15625 4.25 -12.8125 C 4.113281 -11.53125 4.285156 -10.382812 4.765625 -9.375 C 5.253906 -8.375 5.984375 -7.6875 6.953125 -7.3125 C 7.984375 -6.894531 8.890625 -6.632812 9.671875 -6.53125 C 10.453125 -6.425781 11.265625 -6.503906 12.109375 -6.765625 C 12.953125 -7.023438 13.976562 -7.445312 15.1875 -8.03125 C 15.988281 -8.445312 16.742188 -8.84375 17.453125 -9.21875 C 18.160156 -9.601562 18.945312 -9.9375 19.8125 -10.21875 Z M 17.890625 -23.28125 C 17.679688 -24.425781 17.210938 -25.238281 16.484375 -25.71875 C 15.765625 -26.207031 14.894531 -26.429688 13.875 -26.390625 C 12.851562 -26.359375 11.8125 -26.117188 10.75 -25.671875 C 9.695312 -25.222656 8.722656 -24.625 7.828125 -23.875 C 6.929688 -23.132812 6.222656 -22.296875 5.703125 -21.359375 C 5.179688 -20.429688 4.972656 -19.46875 5.078125 -18.46875 C 5.460938 -18.664062 6.171875 -18.882812 7.203125 -19.125 C 8.242188 -19.375 9.40625 -19.632812 10.6875 -19.90625 C 11.96875 -20.1875 13.1875 -20.5 14.34375 -20.84375 C 15.5 -21.1875 16.421875 -21.554688 17.109375 -21.953125 C 17.804688 -22.359375 18.066406 -22.800781 17.890625 -23.28125 Z M 17.890625 -23.28125 "/></g></g></g><g fill="#000000" fill-opacity="1"><g transform="translate(150.043329, 70.69042)"><g><path d="M 4.25 0 C 3.695312 -0.132812 3.1875 -0.566406 2.71875 -1.296875 C 2.25 -2.023438 1.832031 -2.875 1.46875 -3.84375 C 1.113281 -4.8125 0.8125 -5.773438 0.5625 -6.734375 C 0.320312 -7.703125 0.171875 -8.515625 0.109375 -9.171875 C 0.0351562 -10.660156 0.03125 -12.414062 0.09375 -14.4375 C 0.164062 -16.46875 0.28125 -18.648438 0.4375 -20.984375 C 0.59375 -23.316406 0.75 -25.679688 0.90625 -28.078125 C 1.0625 -30.484375 1.171875 -32.800781 1.234375 -35.03125 C 1.304688 -37.257812 1.304688 -39.296875 1.234375 -41.140625 C 1.171875 -42.992188 0.984375 -44.507812 0.671875 -45.6875 C 0.671875 -46.414062 0.96875 -46.707031 1.5625 -46.5625 C 2.25 -46.425781 2.828125 -46.113281 3.296875 -45.625 C 3.765625 -45.144531 4.097656 -44.457031 4.296875 -43.5625 C 4.859375 -42.28125 5.265625 -40.59375 5.515625 -38.5 C 5.773438 -36.414062 5.941406 -34.082031 6.015625 -31.5 C 6.085938 -28.925781 6.078125 -26.265625 5.984375 -23.515625 C 5.898438 -20.765625 5.78125 -18.050781 5.625 -15.375 C 5.46875 -12.695312 5.328125 -10.21875 5.203125 -7.9375 C 5.085938 -5.65625 4.992188 -3.703125 4.921875 -2.078125 C 4.992188 -1.484375 4.96875 -0.976562 4.84375 -0.5625 C 4.726562 -0.15625 4.53125 0.03125 4.25 0 Z M 4.25 0 "/></g></g></g><g fill="#134e4a" fill-opacity="1"><g transform="translate(158.862586, 70.69042)"><g><path d="M 21.3125 -25.09375 C 21.28125 -24.539062 20.863281 -24.070312 20.0625 -23.6875 C 19.269531 -23.3125 18.269531 -22.992188 17.0625 -22.734375 C 15.851562 -22.472656 14.566406 -22.226562 13.203125 -22 C 11.835938 -21.78125 10.570312 -21.550781 9.40625 -21.3125 C 8.25 -21.070312 7.359375 -20.796875 6.734375 -20.484375 C 6.703125 -18.023438 6.660156 -15.617188 6.609375 -13.265625 C 6.554688 -10.921875 6.5 -8.765625 6.4375 -6.796875 C 8.019531 -7.171875 9.707031 -7.582031 11.5 -8.03125 C 13.300781 -8.488281 15.066406 -8.945312 16.796875 -9.40625 C 18.523438 -9.875 20.097656 -10.316406 21.515625 -10.734375 C 22.929688 -11.148438 24.085938 -11.53125 24.984375 -11.875 C 25.890625 -12.21875 26.394531 -12.492188 26.5 -12.703125 C 27.332031 -12.597656 27.945312 -12.273438 28.34375 -11.734375 C 28.738281 -11.203125 28.988281 -10.59375 29.09375 -9.90625 C 29.195312 -9.21875 29.203125 -8.535156 29.109375 -7.859375 C 29.023438 -7.179688 28.898438 -6.632812 28.734375 -6.21875 C 26.796875 -5.5 24.769531 -4.90625 22.65625 -4.4375 C 20.550781 -3.96875 18.503906 -3.535156 16.515625 -3.140625 C 14.523438 -2.742188 12.71875 -2.25 11.09375 -1.65625 L 4.15625 0.109375 L 3.421875 -0.265625 C 2.765625 -0.878906 2.269531 -1.4375 1.9375 -1.9375 C 1.613281 -2.445312 1.320312 -2.957031 1.0625 -3.46875 C 0.800781 -3.988281 0.410156 -4.5625 -0.109375 -5.1875 L 2.4375 -5.8125 C 2.257812 -6.363281 2.117188 -6.894531 2.015625 -7.40625 C 1.910156 -7.925781 1.828125 -8.394531 1.765625 -8.8125 C 1.691406 -10.09375 1.671875 -11.65625 1.703125 -13.5 C 1.742188 -15.351562 1.796875 -17.265625 1.859375 -19.234375 C 1.003906 -19.410156 0.425781 -19.832031 0.125 -20.5 C -0.164062 -21.175781 -0.328125 -21.945312 -0.359375 -22.8125 C -0.398438 -23.675781 -0.472656 -24.472656 -0.578125 -25.203125 C 0.222656 -25.484375 0.769531 -25.613281 1.0625 -25.59375 C 1.351562 -25.570312 1.671875 -25.648438 2.015625 -25.828125 C 2.085938 -27.867188 2.148438 -29.890625 2.203125 -31.890625 C 2.253906 -33.898438 2.28125 -35.785156 2.28125 -37.546875 C 1.757812 -38.335938 1.410156 -39.050781 1.234375 -39.6875 C 1.066406 -40.332031 0.722656 -41.085938 0.203125 -41.953125 L 2.078125 -42.265625 C 2.003906 -42.953125 1.925781 -43.597656 1.84375 -44.203125 C 1.757812 -44.816406 1.644531 -45.363281 1.5 -45.84375 C 1.46875 -46.601562 1.726562 -46.894531 2.28125 -46.71875 C 3.625 -46.550781 4.472656 -45.617188 4.828125 -43.921875 C 4.992188 -43.546875 5.128906 -43.132812 5.234375 -42.6875 C 7.691406 -42.957031 10.113281 -43.1875 12.5 -43.375 C 14.882812 -43.570312 17.25 -43.894531 19.59375 -44.34375 C 21.945312 -44.789062 24.300781 -45.5 26.65625 -46.46875 C 27.695312 -46.257812 28.421875 -45.816406 28.828125 -45.140625 C 29.242188 -44.460938 29.46875 -43.71875 29.5 -42.90625 C 29.539062 -42.09375 29.457031 -41.375 29.25 -40.75 C 29.039062 -40.132812 28.816406 -39.789062 28.578125 -39.71875 C 25.535156 -38.851562 22.1875 -38.238281 18.53125 -37.875 C 14.882812 -37.519531 10.78125 -37.203125 6.21875 -36.921875 C 6.394531 -35.429688 6.523438 -33.847656 6.609375 -32.171875 C 6.691406 -30.492188 6.753906 -28.796875 6.796875 -27.078125 C 8.691406 -27.421875 10.597656 -27.859375 12.515625 -28.390625 C 14.441406 -28.929688 16.375 -29.632812 18.3125 -30.5 C 19.101562 -30.601562 19.722656 -30.398438 20.171875 -29.890625 C 20.617188 -29.390625 20.925781 -28.707031 21.09375 -27.84375 C 21.269531 -26.976562 21.34375 -26.0625 21.3125 -25.09375 Z M 21.3125 -25.09375 "/></g></g></g><g fill="#134e4a" fill-opacity="1"><g transform="translate(189.456895, 70.69042)"><g><path d="M 15.046875 -19.296875 C 16.628906 -17.046875 18.65625 -14.863281 21.125 -12.75 C 23.601562 -10.644531 26.378906 -8.59375 29.453125 -6.59375 L 24.21875 -0.421875 C 23.800781 -0.273438 23.410156 -0.210938 23.046875 -0.234375 C 22.679688 -0.253906 22.363281 -0.4375 22.09375 -0.78125 L 8.96875 -16.078125 C 9.039062 -15.765625 9.132812 -15.054688 9.25 -13.953125 C 9.375 -12.847656 9.492188 -11.554688 9.609375 -10.078125 C 9.734375 -8.609375 9.832031 -7.15625 9.90625 -5.71875 C 9.976562 -4.289062 10.019531 -3.054688 10.03125 -2.015625 C 10.050781 -0.984375 10.007812 -0.378906 9.90625 -0.203125 C 8.625 -0.859375 7.722656 -1.382812 7.203125 -1.78125 C 6.691406 -2.1875 6.332031 -2.644531 6.125 -3.15625 L 5.1875 -14.203125 C 5.1875 -14.242188 5.054688 -14.203125 4.796875 -14.078125 C 4.535156 -13.953125 4.25 -13.851562 3.9375 -13.78125 C 3.625 -13.71875 3.347656 -13.773438 3.109375 -13.953125 C 2.554688 -14.367188 2.035156 -14.867188 1.546875 -15.453125 C 1.066406 -16.035156 0.6875 -16.585938 0.40625 -17.109375 C 0.132812 -17.628906 0 -17.976562 0 -18.15625 C 0.3125 -18.5 0.8125 -18.882812 1.5 -19.3125 C 2.195312 -19.75 2.847656 -20.140625 3.453125 -20.484375 C 4.054688 -20.828125 4.359375 -21.035156 4.359375 -21.109375 C 4.421875 -21.691406 4.460938 -22.628906 4.484375 -23.921875 C 4.503906 -25.222656 4.519531 -26.6875 4.53125 -28.3125 C 4.550781 -29.9375 4.5625 -31.550781 4.5625 -33.15625 C 4.5625 -34.769531 4.5625 -36.210938 4.5625 -37.484375 C 4.5625 -38.765625 4.5625 -39.703125 4.5625 -40.296875 C 3.90625 -40.191406 3.429688 -40.015625 3.140625 -39.765625 C 2.847656 -39.523438 2.601562 -39.316406 2.40625 -39.140625 C 2.21875 -38.972656 1.953125 -38.910156 1.609375 -38.953125 C 1.054688 -39.222656 0.679688 -39.515625 0.484375 -39.828125 C 0.296875 -40.140625 0.203125 -40.484375 0.203125 -40.859375 C 0.203125 -41.765625 0.566406 -42.523438 1.296875 -43.140625 C 2.023438 -43.765625 2.972656 -44.285156 4.140625 -44.703125 C 5.316406 -45.117188 6.625 -45.4375 8.0625 -45.65625 C 9.5 -45.882812 10.925781 -46.015625 12.34375 -46.046875 C 13.757812 -46.085938 15.054688 -46.035156 16.234375 -45.890625 C 19.453125 -45.410156 21.941406 -44.738281 23.703125 -43.875 C 25.460938 -43.007812 26.800781 -41.925781 27.71875 -40.625 C 28.632812 -39.332031 29.367188 -37.769531 29.921875 -35.9375 C 30.304688 -34.132812 30.097656 -32.4375 29.296875 -30.84375 C 28.503906 -29.257812 27.347656 -27.785156 25.828125 -26.421875 C 24.304688 -25.054688 22.59375 -23.773438 20.6875 -22.578125 C 18.789062 -21.390625 16.910156 -20.296875 15.046875 -19.296875 Z M 8.1875 -22.921875 L 13.125 -25.359375 C 13.945312 -25.742188 14.988281 -26.269531 16.25 -26.9375 C 17.519531 -27.613281 18.816406 -28.390625 20.140625 -29.265625 C 21.472656 -30.148438 22.707031 -31.066406 23.84375 -32.015625 C 24.988281 -32.972656 25.875 -33.9375 26.5 -34.90625 C 27.125 -35.875 27.332031 -36.769531 27.125 -37.59375 C 26.15625 -38.425781 24.9375 -39.195312 23.46875 -39.90625 C 22 -40.613281 20.398438 -41.179688 18.671875 -41.609375 C 16.941406 -42.046875 15.210938 -42.265625 13.484375 -42.265625 C 11.753906 -42.265625 10.128906 -41.972656 8.609375 -41.390625 C 8.503906 -40.898438 8.390625 -40.066406 8.265625 -38.890625 C 8.148438 -37.710938 8.039062 -36.351562 7.9375 -34.8125 C 7.832031 -33.28125 7.769531 -31.726562 7.75 -30.15625 C 7.738281 -28.582031 7.753906 -27.15625 7.796875 -25.875 C 7.847656 -24.59375 7.976562 -23.609375 8.1875 -22.921875 Z M 8.1875 -22.921875 "/></g></g></g><g fill="#134e4a" fill-opacity="1"><g transform="translate(221.140151, 70.69042)"><g><path d="M 11.15625 -17.328125 L 8.1875 -15.921875 C 8.226562 -15.609375 8.304688 -14.890625 8.421875 -13.765625 C 8.546875 -12.640625 8.691406 -11.34375 8.859375 -9.875 C 9.035156 -8.40625 9.179688 -6.941406 9.296875 -5.484375 C 9.421875 -4.035156 9.5 -2.789062 9.53125 -1.75 C 9.570312 -0.71875 9.523438 -0.117188 9.390625 0.046875 C 8.585938 -0.429688 8.046875 -0.738281 7.765625 -0.875 C 7.492188 -1.019531 7.289062 -1.144531 7.15625 -1.25 C 7.019531 -1.351562 6.757812 -1.578125 6.375 -1.921875 C 5.894531 -3.441406 5.582031 -4.875 5.4375 -6.21875 C 5.300781 -7.570312 5.222656 -8.910156 5.203125 -10.234375 C 5.191406 -11.566406 5.132812 -12.992188 5.03125 -14.515625 C 5.03125 -14.554688 4.832031 -14.5 4.4375 -14.34375 C 4.039062 -14.1875 3.609375 -14.070312 3.140625 -14 C 2.671875 -13.925781 2.332031 -13.976562 2.125 -14.15625 C 1.601562 -14.601562 1.144531 -15.128906 0.75 -15.734375 C 0.351562 -16.335938 0.046875 -16.898438 -0.171875 -17.421875 C -0.398438 -17.941406 -0.515625 -18.289062 -0.515625 -18.46875 C -0.171875 -18.8125 0.367188 -19.179688 1.109375 -19.578125 C 1.859375 -19.972656 2.550781 -20.328125 3.1875 -20.640625 C 3.832031 -20.953125 4.171875 -21.160156 4.203125 -21.265625 C 4.265625 -21.503906 4.28125 -21.832031 4.25 -22.25 C 4.21875 -22.664062 4.21875 -23.148438 4.25 -23.703125 C 4.382812 -26.566406 4.546875 -29.351562 4.734375 -32.0625 C 4.929688 -34.78125 5.203125 -37.59375 5.546875 -40.5 C 4.578125 -40.363281 3.832031 -40.078125 3.3125 -39.640625 C 2.800781 -39.210938 2.300781 -39.035156 1.8125 -39.109375 C 1.257812 -39.453125 0.914062 -39.769531 0.78125 -40.0625 C 0.644531 -40.351562 0.59375 -40.691406 0.625 -41.078125 C 0.726562 -41.972656 1.164062 -42.710938 1.9375 -43.296875 C 2.71875 -43.890625 3.722656 -44.363281 4.953125 -44.71875 C 6.179688 -45.082031 7.507812 -45.34375 8.9375 -45.5 C 10.375 -45.65625 11.800781 -45.71875 13.21875 -45.6875 C 14.632812 -45.65625 15.914062 -45.550781 17.0625 -45.375 C 20.207031 -44.75 22.617188 -43.953125 24.296875 -42.984375 C 25.972656 -42.023438 27.191406 -40.859375 27.953125 -39.484375 C 28.710938 -38.117188 29.265625 -36.519531 29.609375 -34.6875 C 29.742188 -33.03125 29.46875 -31.484375 28.78125 -30.046875 C 28.09375 -28.617188 27.109375 -27.289062 25.828125 -26.0625 C 24.546875 -24.832031 23.082031 -23.695312 21.4375 -22.65625 C 19.800781 -21.625 18.09375 -20.664062 16.3125 -19.78125 C 14.53125 -18.90625 12.8125 -18.085938 11.15625 -17.328125 Z M 8.1875 -22.8125 L 13.328125 -25.046875 C 14.191406 -25.390625 15.238281 -25.863281 16.46875 -26.46875 C 17.695312 -27.070312 18.941406 -27.769531 20.203125 -28.5625 C 21.460938 -29.363281 22.628906 -30.203125 23.703125 -31.078125 C 24.773438 -31.960938 25.617188 -32.863281 26.234375 -33.78125 C 26.859375 -34.695312 27.117188 -35.585938 27.015625 -36.453125 C 26.148438 -37.316406 25.023438 -38.144531 23.640625 -38.9375 C 22.265625 -39.738281 20.738281 -40.394531 19.0625 -40.90625 C 17.382812 -41.425781 15.679688 -41.726562 13.953125 -41.8125 C 12.222656 -41.90625 10.582031 -41.691406 9.03125 -41.171875 C 8.851562 -40.691406 8.691406 -39.867188 8.546875 -38.703125 C 8.410156 -37.546875 8.289062 -36.207031 8.1875 -34.6875 C 8.082031 -33.164062 8.015625 -31.628906 7.984375 -30.078125 C 7.953125 -28.523438 7.941406 -27.097656 7.953125 -25.796875 C 7.972656 -24.503906 8.050781 -23.507812 8.1875 -22.8125 Z M 8.1875 -22.8125 "/></g></g></g></svg>